{
    "asset": {
        "version": "2.0",
        "generator": "This 3D model is generated by KIRI Engine App"
    },
    "extensionsUsed": [
        "KHR_materials_pbrSpecularGlossiness",
        "FB_ngon_encoding"
    ],
    "accessors": [
        {
            "bufferView": 0,
            "byteOffset": 0,
            "componentType": 5126,
            "count": 2486,
            "type": "VEC3",
            "max": [
                1.8489060401916505,
                1.6406229734420777,
                1.7254070043563843
            ],
            "min": [
                -1.7583860158920289,
                -1.508067011833191,
                -1.834831953048706
            ]
        },
        {
            "bufferView": 1,
            "byteOffset": 0,
            "componentType": 5126,
            "count": 2486,
            "type": "VEC3",
            "max": [
                0.9988169074058533,
                0.9999978542327881,
                0.9981516599655151
            ],
            "min": [
                -0.9990595579147339,
                -0.370385080575943,
                -0.9970762133598328
            ]
        },
        {
            "bufferView": 2,
            "byteOffset": 0,
            "componentType": 5126,
            "count": 2486,
            "type": "VEC2",
            "max": [
                0.989853024482727,
                0.999966025352478
            ],
            "min": [
                0.1068819984793663,
                0.002987980842590332
            ]
        },
        {
            "bufferView": 3,
            "byteOffset": 0,
            "componentType": 5125,
            "count": 7932,
            "type": "SCALAR",
            "max": [
                2485
            ],
            "min": [
                0
            ]
        }
    ],
    "buffers": [
        {
            "byteLength": 111280,
            "uri": "3DModel_LowPoly.bin"
        }
    ],
    "bufferViews": [
        {
            "buffer": 0,
            "byteOffset": 0,
            "byteLength": 29832,
            "target": 34962
        },
        {
            "buffer": 0,
            "byteOffset": 29832,
            "byteLength": 29832,
            "target": 34962
        },
        {
            "buffer": 0,
            "byteOffset": 59664,
            "byteLength": 19888,
            "target": 34962
        },
        {
            "buffer": 0,
            "byteOffset": 79552,
            "byteLength": 31728,
            "target": 34963
        }
    ],
    "images": [
        {
            "uri": "data:image/jpeg;base64,"
        }
    ],
    "materials": [
        {
            "name": "3DModel_LowPoly",
            "pbrMetallicRoughness": {
                "baseColorTexture": {
                    "index": 0
                },
                "baseColorFactor": [
                    0.6000000238418579,
                    0.6000000238418579,
                    0.6000000238418579,
                    1.0
                ],
                "metallicFactor": 0.0
            },
            "extensions": {
                "KHR_materials_pbrSpecularGlossiness": {
                    "diffuseFactor": [
                        0.6000000238418579,
                        0.6000000238418579,
                        0.6000000238418579,
                        1.0
                    ],
                    "specularFactor": [
                        0.0,
                        0.0,
                        0.0
                    ],
                    "glossinessFactor": 0.0,
                    "diffuseTexture": {
                        "index": 0
                    }
                }
            }
        }
    ],
    "meshes": [
        {
            "name": "3DModel_LowPoly",
            "primitives": [
                {
                    "mode": 4,
                    "material": 0,
                    "indices": 3,
                    "attributes": {
                        "POSITION": 0,
                        "NORMAL": 1,
                        "TEXCOORD_0": 2
                    }
                }
            ]
        }
    ],
    "nodes": [
        {
            "name": "3DModel_LowPoly.obj",
            "children": [
                1,
                2,
                3,
                4,
                5,
                6,
                7
            ]
        },
        {
            "name": "3DModel_LowPoly",
            "mesh": 0
        },
        {
            "name": "front"
        },
        {
            "name": "right"
        },
        {
            "name": "top"
        },
        {
            "name": "back"
        },
        {
            "name": "left"
        },
        {
            "name": "bottom"
        }
    ],
    "samplers": [
        {}
    ],
    "scenes": [
        {
            "nodes": [
                0
            ]
        }
    ],
    "textures": [
        {
            "source": 0,
            "sampler": 0
        }
    ],
    "scene": 0
}