{
    "asset": {
        "version": "2.0",
        "generator": "This 3D model is generated by KIRI Engine App"
    },
    "extensionsUsed": [
        "KHR_materials_pbrSpecularGlossiness",
        "FB_ngon_encoding"
    ],
    "accessors": [
        {
            "bufferView": 0,
            "byteOffset": 0,
            "componentType": 5126,
            "count": 278793,
            "type": "VEC3",
            "max": [
                1.8489069938659669,
                1.6432509422302247,
                1.7254009246826172
            ],
            "min": [
                -1.7583860158920289,
                -1.5091919898986817,
                -1.834831953048706
            ]
        },
        {
            "bufferView": 1,
            "byteOffset": 0,
            "componentType": 5126,
            "count": 278793,
            "type": "VEC3",
            "max": [
                0.9999932050704956,
                1.0,
                0.9999966621398926
            ],
            "min": [
                -0.9999908208847046,
                -0.8102127313613892,
                -0.9999865293502808
            ]
        },
        {
            "bufferView": 2,
            "byteOffset": 0,
            "componentType": 5126,
            "count": 278793,
            "type": "VEC2",
            "max": [
                0.9797959923744202,
                0.999966025352478
            ],
            "min": [
                0.00003400000059627928,
                0.0014870166778564454
            ]
        },
        {
            "bufferView": 3,
            "byteOffset": 0,
            "componentType": 5125,
            "count": 792426,
            "type": "SCALAR",
            "max": [
                278792
            ],
            "min": [
                0
            ]
        }
    ],
    "buffers": [
        {
            "byteLength": 12091080,
            "uri": "3DModel.bin"
        }
    ],
    "bufferViews": [
        {
            "buffer": 0,
            "byteOffset": 0,
            "byteLength": 3345516,
            "target": 34962
        },
        {
            "buffer": 0,
            "byteOffset": 3345516,
            "byteLength": 3345516,
            "target": 34962
        },
        {
            "buffer": 0,
            "byteOffset": 6691032,
            "byteLength": 2230344,
            "target": 34962
        },
        {
            "buffer": 0,
            "byteOffset": 8921376,
            "byteLength": 3169704,
            "target": 34963
        }
    ],
    "images": [
        {
            "uri": "data:image/jpeg;base64,"
        }
    ],
    "materials": [
        {
            "name": "3DModel",
            "pbrMetallicRoughness": {
                "baseColorTexture": {
                    "index": 0
                },
                "baseColorFactor": [
                    0.6000000238418579,
                    0.6000000238418579,
                    0.6000000238418579,
                    1.0
                ],
                "metallicFactor": 0.0
            },
            "extensions": {
                "KHR_materials_pbrSpecularGlossiness": {
                    "diffuseFactor": [
                        0.6000000238418579,
                        0.6000000238418579,
                        0.6000000238418579,
                        1.0
                    ],
                    "specularFactor": [
                        0.0,
                        0.0,
                        0.0
                    ],
                    "glossinessFactor": 0.0,
                    "diffuseTexture": {
                        "index": 0
                    }
                }
            }
        }
    ],
    "meshes": [
        {
            "name": "3DModel",
            "primitives": [
                {
                    "mode": 4,
                    "material": 0,
                    "indices": 3,
                    "attributes": {
                        "POSITION": 0,
                        "NORMAL": 1,
                        "TEXCOORD_0": 2
                    }
                }
            ]
        }
    ],
    "nodes": [
        {
            "name": "3DModel.obj",
            "children": [
                1,
                2,
                3,
                4,
                5,
                6,
                7
            ]
        },
        {
            "name": "3DModel",
            "mesh": 0
        },
        {
            "name": "front"
        },
        {
            "name": "right"
        },
        {
            "name": "top"
        },
        {
            "name": "back"
        },
        {
            "name": "left"
        },
        {
            "name": "bottom"
        }
    ],
    "samplers": [
        {}
    ],
    "scenes": [
        {
            "nodes": [
                0
            ]
        }
    ],
    "textures": [
        {
            "source": 0,
            "sampler": 0
        }
    ],
    "scene": 0
}